<svg xmlns="http://www.w3.org/2000/svg" viewBox="0 0 262.71 266.6"><title>spotty</title><path d="M161.52,125.31l2.79-4a1,1,0,0,0-.71-1.52l-4.86-.42a1,1,0,0,0-1,1.38l2.06,4.42A1,1,0,0,0,161.52,125.31Z" transform="translate(-10.2 -8.28)" fill="#abe0d4"/><path d="M205.7,134.18l-4.08-2.68a1,1,0,0,0-1.5.75l-.28,4.88a1,1,0,0,0,1.4.92l4.36-2.2A1,1,0,0,0,205.7,134.18Z" transform="translate(-10.2 -8.28)" fill="#abe0d4"/><path d="M130,84.83l4,2.76a1,1,0,0,0,1.51-.73l.37-4.87A1,1,0,0,0,134.5,81l-4.4,2.12A1,1,0,0,0,130,84.83Z" transform="translate(-10.2 -8.28)" fill="#abe0d4"/><path d="M272.81,269.18l-2.22-4.35a1,1,0,0,0-1.68-.09l-2.66,4.1a1,1,0,0,0,.77,1.5l4.88.25A1,1,0,0,0,272.81,269.18Z" transform="translate(-10.2 -8.28)" fill="#abe0d4"/><path d="M268.62,76.35l.61-4.85a1,1,0,0,0-1.34-1l-4.5,1.89a1,1,0,0,0-.21,1.67l3.89,3A1,1,0,0,0,268.62,76.35Z" transform="translate(-10.2 -8.28)" fill="#abe0d4"/><path d="M202.18,97.93,202.09,93a1,1,0,0,0-1.46-.81l-4.19,2.52a1,1,0,0,0,0,1.68l4.28,2.36A1,1,0,0,0,202.18,97.93Z" transform="translate(-10.2 -8.28)" fill="#abe0d4"/><path d="M231.94,258.8l-3.09,3.79a1,1,0,0,0,.6,1.57l4.82.78a1,1,0,0,0,1.06-1.3l-1.74-4.57A1,1,0,0,0,231.94,258.8Z" transform="translate(-10.2 -8.28)" fill="#abe0d4"/><path d="M171.87,23.45l3.58-3.33a1,1,0,0,0-.38-1.64l-4.67-1.43a1,1,0,0,0-1.23,1.15l1.1,4.76A1,1,0,0,0,171.87,23.45Z" transform="translate(-10.2 -8.28)" fill="#abe0d4"/><path d="M227.78,186.41l-4.52-1.87a1,1,0,0,0-1.33,1l.64,4.84a1,1,0,0,0,1.55.64l3.88-3A1,1,0,0,0,227.78,186.41Z" transform="translate(-10.2 -8.28)" fill="#abe0d4"/><path d="M70.08,196.26l.53,4.86a1,1,0,0,0,1.53.68l3.94-2.88a1,1,0,0,0-.17-1.67l-4.47-2A1,1,0,0,0,70.08,196.26Z" transform="translate(-10.2 -8.28)" fill="#abe0d4"/><path d="M126.29,163.81l-2.55-4.17a1,1,0,0,0-1.68.05L119.73,164a1,1,0,0,0,.88,1.43l4.88-.13A1,1,0,0,0,126.29,163.81Z" transform="translate(-10.2 -8.28)" fill="#abe0d4"/><path d="M227.63,17.4l2.29-4.31a1,1,0,0,0-.89-1.42l-4.89.17a1,1,0,0,0-.78,1.48L226,17.46A1,1,0,0,0,227.63,17.4Z" transform="translate(-10.2 -8.28)" fill="#abe0d4"/><path d="M23.44,38.23l-3.11-3.76a1,1,0,0,0-1.65.27L17,39.32A1,1,0,0,0,18,40.61l4.81-.8A1,1,0,0,0,23.44,38.23Z" transform="translate(-10.2 -8.28)" fill="#abe0d4"/><path d="M167.52,68.42l3,3.86a1,1,0,0,0,1.66-.23L174,67.53a1,1,0,0,0-1-1.33l-4.84.67A1,1,0,0,0,167.52,68.42Z" transform="translate(-10.2 -8.28)" fill="#abe0d4"/><path d="M80.57,24.78l1.3,4.71a1,1,0,0,0,1.62.42l3.43-3.48a1,1,0,0,0-.45-1.62l-4.73-1.23A1,1,0,0,0,80.57,24.78Z" transform="translate(-10.2 -8.28)" fill="#abe0d4"/><path d="M117.86,119.41l-4.88,0a1,1,0,0,0-.85,1.45l2.42,4.24a1,1,0,0,0,1.68,0l2.46-4.21A1,1,0,0,0,117.86,119.41Z" transform="translate(-10.2 -8.28)" fill="#ffdd31"/><path d="M166,161.3l-3.32,3.58a1,1,0,0,0,.49,1.6l4.76,1.09a1,1,0,0,0,1.14-1.23l-1.44-4.67A1,1,0,0,0,166,161.3Z" transform="translate(-10.2 -8.28)" fill="#ffdd31"/><path d="M16.12,253.66l-4.87-.37a1,1,0,0,0-.95,1.39l2.11,4.4a1,1,0,0,0,1.68.12l2.75-4A1,1,0,0,0,16.12,253.66Z" transform="translate(-10.2 -8.28)" fill="#ffdd31"/><path d="M112.07,259.92l3.52,3.4a1,1,0,0,0,1.61-.46l1.18-4.74a1,1,0,0,0-1.2-1.17l-4.7,1.35A1,1,0,0,0,112.07,259.92Z" transform="translate(-10.2 -8.28)" fill="#ffdd31"/><path d="M108.2,205l-.2,4.88a1,1,0,0,0,1.42.9l4.33-2.26a1,1,0,0,0,.07-1.68l-4.13-2.62A1,1,0,0,0,108.2,205Z" transform="translate(-10.2 -8.28)" fill="#ffdd31"/><path d="M66.13,102.72l-4-2.74a1,1,0,0,0-1.51.73l-.35,4.87a1,1,0,0,0,1.39.94l4.4-2.13A1,1,0,0,0,66.13,102.72Z" transform="translate(-10.2 -8.28)" fill="#ffdd31"/><path d="M195.8,203.48l-4.83-.72a1,1,0,0,0-1.05,1.32l1.79,4.54a1,1,0,0,0,1.66.25l3-3.82A1,1,0,0,0,195.8,203.48Z" transform="translate(-10.2 -8.28)" fill="#ffdd31"/><path d="M37.1,265.82l-.31,4.87a1,1,0,0,0,1.4.93l4.38-2.17a1,1,0,0,0,.1-1.67l-4.07-2.71A1,1,0,0,0,37.1,265.82Z" transform="translate(-10.2 -8.28)" fill="#ffdd31"/><path d="M26,127.91l4.86.43a1,1,0,0,0,1-1.37l-2.06-4.43a1,1,0,0,0-1.67-.15l-2.81,4A1,1,0,0,0,26,127.91Z" transform="translate(-10.2 -8.28)" fill="#ffdd31"/><path d="M135.78,41.38l2.49-4.19a1,1,0,0,0-.82-1.47l-4.88-.06a1,1,0,0,0-.86,1.44l2.39,4.26A1,1,0,0,0,135.78,41.38Z" transform="translate(-10.2 -8.28)" fill="#ffdd31"/><path d="M190.07,265.77l4.81-.89a1,1,0,0,0,.56-1.58l-3.18-3.72a1,1,0,0,0-1.65.31l-1.63,4.6A1,1,0,0,0,190.07,265.77Z" transform="translate(-10.2 -8.28)" fill="#ffdd31"/><path d="M16.12,173.11l3.63-3.26a1,1,0,0,0-.34-1.65l-4.65-1.51a1,1,0,0,0-1.25,1.13l1,4.77A1,1,0,0,0,16.12,173.11Z" transform="translate(-10.2 -8.28)" fill="#ffdd31"/><path d="M82.8,157.82l2.67-4.09a1,1,0,0,0-.76-1.5L79.83,152a1,1,0,0,0-.91,1.41l2.21,4.35A1,1,0,0,0,82.8,157.82Z" transform="translate(-10.2 -8.28)" fill="#ffdd31"/><path d="M267,197.17l4.57-1.72a1,1,0,0,0,.27-1.66l-3.78-3.1a1,1,0,0,0-1.57.59l-.79,4.82A1,1,0,0,0,267,197.17Z" transform="translate(-10.2 -8.28)" fill="#ffdd31"/><path d="M200.53,43.69l4.6,1.63a1,1,0,0,0,1.28-1.09l-.89-4.8a1,1,0,0,0-1.58-.56L200.22,42A1,1,0,0,0,200.53,43.69Z" transform="translate(-10.2 -8.28)" fill="#ffdd31"/><path d="M42.11,17.28l-.29,4.88a1,1,0,0,0,1.4.92l4.36-2.19a1,1,0,0,0,.1-1.67l-4.07-2.69A1,1,0,0,0,42.11,17.28Z" transform="translate(-10.2 -8.28)" fill="#9b9b9b"/><path d="M21.86,83.89,22.19,79a1,1,0,0,0-1.39-.93l-4.39,2.14a1,1,0,0,0-.11,1.68l4.05,2.72A1,1,0,0,0,21.86,83.89Z" transform="translate(-10.2 -8.28)" fill="#9b9b9b"/><path d="M123.32,14.23l1-4.79A1,1,0,0,0,123,8.34l-4.63,1.57a1,1,0,0,0-.32,1.65l3.67,3.21A1,1,0,0,0,123.32,14.23Z" transform="translate(-10.2 -8.28)" fill="#9b9b9b"/><path d="M254.9,156.61l2.49,4.2a1,1,0,0,0,1.67,0l2.41-4.26a1,1,0,0,0-.86-1.44l-4.88.05A1,1,0,0,0,254.9,156.61Z" transform="translate(-10.2 -8.28)" fill="#9b9b9b"/><path d="M259.87,230.35l3.51,3.38a1,1,0,0,0,1.62-.46l1.17-4.74a1,1,0,0,0-1.21-1.16l-4.69,1.35A1,1,0,0,0,259.87,230.35Z" transform="translate(-10.2 -8.28)" fill="#9b9b9b"/><path d="M49.88,167.46l-4.33,2.26a1,1,0,0,0-.07,1.67L49.6,174a1,1,0,0,0,1.49-.77l.21-4.88A1,1,0,0,0,49.88,167.46Z" transform="translate(-10.2 -8.28)" fill="#9b9b9b"/><path d="M62,232.12l-1.1,4.76A1,1,0,0,0,62.17,238l4.67-1.43a1,1,0,0,0,.38-1.64l-3.58-3.33A1,1,0,0,0,62,232.12Z" transform="translate(-10.2 -8.28)" fill="#9b9b9b"/><path d="M250.49,117.48l3.19,3.69a1,1,0,0,0,1.65-.31l1.6-4.62a1,1,0,0,0-1.1-1.27l-4.79.92A1,1,0,0,0,250.49,117.48Z" transform="translate(-10.2 -8.28)" fill="#9b9b9b"/><path d="M83,273.77l-.74-4.83a1,1,0,0,0-1.56-.61l-3.81,3.06a1,1,0,0,0,.25,1.66l4.56,1.77A1,1,0,0,0,83,273.77Z" transform="translate(-10.2 -8.28)" fill="#9b9b9b"/><path d="M24.13,217.46l2.27-4.33a1,1,0,0,0-.9-1.41l-4.88.2a1,1,0,0,0-.78,1.49l2.62,4.12A1,1,0,0,0,24.13,217.46Z" transform="translate(-10.2 -8.28)" fill="#9b9b9b"/><path d="M87.78,65.2,82.9,65A1,1,0,0,0,82,66.4l2.25,4.33a1,1,0,0,0,1.68.08l2.62-4.12A1,1,0,0,0,87.78,65.2Z" transform="translate(-10.2 -8.28)" fill="#9b9b9b"/><path d="M155,255.6l3.86-3a1,1,0,0,0-.23-1.66l-4.53-1.85a1,1,0,0,0-1.32,1l.67,4.84A1,1,0,0,0,155,255.6Z" transform="translate(-10.2 -8.28)" fill="#9b9b9b"/><path d="M148.75,206.83l-1.06,4.77a1,1,0,0,0,1.24,1.13l4.66-1.46a1,1,0,0,0,.36-1.64l-3.6-3.3A1,1,0,0,0,148.75,206.83Z" transform="translate(-10.2 -8.28)" fill="#9b9b9b"/><path d="M230.81,70.26l-4.12-2.62a1,1,0,0,0-1.49.77L225,73.29a1,1,0,0,0,1.42.9l4.33-2.26A1,1,0,0,0,230.81,70.26Z" transform="translate(-10.2 -8.28)" fill="#9b9b9b"/><path d="M266.52,30.78l-1.65-4.59a1,1,0,0,0-1.65-.3l-3.16,3.72a1,1,0,0,0,.57,1.58l4.8.87A1,1,0,0,0,266.52,30.78Z" transform="translate(-10.2 -8.28)" fill="#9b9b9b"/></svg>